<svg width="400" height="120" viewBox="0 0 400 120" fill="none" xmlns="http://www.w3.org/2000/svg">
  <!-- Abstract graphic with dots forming diamond shape -->
  <g>
    <!-- Golden dots (top-left and bottom-right) -->
    <circle cx="25" cy="25" r="4" fill="#D4AF37"/>
    <circle cx="35" cy="20" r="3" fill="#D4AF37"/>
    <circle cx="20" cy="35" r="3" fill="#D4AF37"/>
    <circle cx="40" cy="15" r="2.5" fill="#D4AF37"/>
    <circle cx="15" cy="40" r="2.5" fill="#D4AF37"/>
    <circle cx="45" cy="10" r="2" fill="#D4AF37"/>
    <circle cx="10" cy="45" r="2" fill="#D4AF37"/>
    <circle cx="50" cy="5" r="1.5" fill="#D4AF37"/>
    <circle cx="5" cy="50" r="1.5" fill="#D4AF37"/>
    
    <circle cx="60" cy="60" r="4" fill="#D4AF37"/>
    <circle cx="55" cy="70" r="3" fill="#D4AF37"/>
    <circle cx="70" cy="55" r="3" fill="#D4AF37"/>
    <circle cx="50" cy="75" r="2.5" fill="#D4AF37"/>
    <circle cx="75" cy="50" r="2.5" fill="#D4AF37"/>
    <circle cx="45" cy="80" r="2" fill="#D4AF37"/>
    <circle cx="80" cy="45" r="2" fill="#D4AF37"/>
    <circle cx="40" cy="85" r="1.5" fill="#D4AF37"/>
    <circle cx="85" cy="40" r="1.5" fill="#D4AF37"/>
    
    <!-- Blue dots (top-right and bottom-left) -->
    <circle cx="60" cy="25" r="4" fill="#1E3A8A"/>
    <circle cx="55" cy="20" r="3" fill="#1E3A8A"/>
    <circle cx="70" cy="35" r="3" fill="#1E3A8A"/>
    <circle cx="50" cy="15" r="2.5" fill="#1E3A8A"/>
    <circle cx="75" cy="40" r="2.5" fill="#1E3A8A"/>
    <circle cx="45" cy="10" r="2" fill="#1E3A8A"/>
    <circle cx="80" cy="45" r="2" fill="#1E3A8A"/>
    <circle cx="40" cy="5" r="1.5" fill="#1E3A8A"/>
    <circle cx="85" cy="50" r="1.5" fill="#1E3A8A"/>
    
    <circle cx="25" cy="60" r="4" fill="#1E3A8A"/>
    <circle cx="30" cy="70" r="3" fill="#1E3A8A"/>
    <circle cx="20" cy="55" r="3" fill="#1E3A8A"/>
    <circle cx="35" cy="75" r="2.5" fill="#1E3A8A"/>
    <circle cx="15" cy="50" r="2.5" fill="#1E3A8A"/>
    <circle cx="40" cy="80" r="2" fill="#1E3A8A"/>
    <circle cx="10" cy="45" r="2" fill="#1E3A8A"/>
    <circle cx="45" cy="85" r="1.5" fill="#1E3A8A"/>
    <circle cx="5" cy="40" r="1.5" fill="#1E3A8A"/>
  </g>
  
  <!-- Text -->
  <text x="100" y="35" fill="#D4AF37" font-family="Arial, sans-serif" font-size="16" font-weight="bold">TEILHABER IM</text>
  <text x="100" y="65" fill="#1E3A8A" font-family="Arial, sans-serif" font-size="28" font-weight="bold">Netzwerk</text>
  <text x="100" y="95" fill="#1E3A8A" font-family="Arial, sans-serif" font-size="20" font-weight="bold">Stiftungen und Bildung</text>
</svg>


