<svg width="200" height="80" viewBox="0 0 200 80" fill="none" xmlns="http://www.w3.org/2000/svg">
  <!-- Abstract graphic with dots forming diamond shape -->
  <g>
    <!-- Golden dots (top-left and bottom-right) -->
    <circle cx="20" cy="20" r="3" fill="#D4AF37"/>
    <circle cx="25" cy="15" r="2" fill="#D4AF37"/>
    <circle cx="15" cy="25" r="2" fill="#D4AF37"/>
    <circle cx="30" cy="10" r="1.5" fill="#D4AF37"/>
    <circle cx="10" cy="30" r="1.5" fill="#D4AF37"/>
    <circle cx="35" cy="5" r="1" fill="#D4AF37"/>
    <circle cx="5" cy="35" r="1" fill="#D4AF37"/>
    
    <circle cx="50" cy="50" r="3" fill="#D4AF37"/>
    <circle cx="45" cy="55" r="2" fill="#D4AF37"/>
    <circle cx="55" cy="45" r="2" fill="#D4AF37"/>
    <circle cx="40" cy="60" r="1.5" fill="#D4AF37"/>
    <circle cx="60" cy="40" r="1.5" fill="#D4AF37"/>
    <circle cx="35" cy="65" r="1" fill="#D4AF37"/>
    <circle cx="65" cy="35" r="1" fill="#D4AF37"/>
    
    <!-- Blue dots (top-right and bottom-left) -->
    <circle cx="50" cy="20" r="3" fill="#1E3A8A"/>
    <circle cx="45" cy="15" r="2" fill="#1E3A8A"/>
    <circle cx="55" cy="25" r="2" fill="#1E3A8A"/>
    <circle cx="40" cy="10" r="1.5" fill="#1E3A8A"/>
    <circle cx="60" cy="30" r="1.5" fill="#1E3A8A"/>
    <circle cx="35" cy="5" r="1" fill="#1E3A8A"/>
    <circle cx="65" cy="35" r="1" fill="#1E3A8A"/>
    
    <circle cx="20" cy="50" r="3" fill="#1E3A8A"/>
    <circle cx="25" cy="55" r="2" fill="#1E3A8A"/>
    <circle cx="15" cy="45" r="2" fill="#1E3A8A"/>
    <circle cx="30" cy="60" r="1.5" fill="#1E3A8A"/>
    <circle cx="10" cy="40" r="1.5" fill="#1E3A8A"/>
    <circle cx="35" cy="65" r="1" fill="#1E3A8A"/>
    <circle cx="5" cy="35" r="1" fill="#1E3A8A"/>
  </g>
  
  <!-- Text -->
  <text x="90" y="25" fill="#D4AF37" font-family="Arial, sans-serif" font-size="12" font-weight="bold">TEILHABER IM</text>
  <text x="90" y="45" fill="#1E3A8A" font-family="Arial, sans-serif" font-size="18" font-weight="bold">Netzwerk</text>
  <text x="90" y="65" fill="#1E3A8A" font-family="Arial, sans-serif" font-size="14" font-weight="bold">Stiftungen und Bildung</text>
</svg>


